<?xml version="1.0" encoding="UTF-8" standalone="no"?><!DOCTYPE svg PUBLIC "-//W3C//DTD SVG 1.1//EN" "http://www.w3.org/Graphics/SVG/1.1/DTD/svg11.dtd"><svg width="100%" height="100%" viewBox="0 0 171 35" version="1.1" xmlns="http://www.w3.org/2000/svg" xmlns:xlink="http://www.w3.org/1999/xlink" xml:space="preserve" xmlns:serif="http://www.serif.com/" style="fill-rule:evenodd;clip-rule:evenodd;stroke-linejoin:round;stroke-miterlimit:2;"><rect id="how-to-play" x="0.483" y="0" width="170.211" height="35.081" style="fill:none;"/><g id="how-to-play1" serif:id="how-to-play"><g><path d="M170.695,0.122l-170.212,0l7.086,17.044l-7.086,17.757l170.212,-0l-9.6,-16.079l9.6,-18.722Z" style="fill:#042352;"/><path d="M26.954,27.293l-0,-8.13l3.63,0l-0,8.13l3.72,0l-0,-18.9l-3.72,0l-0,7.71l-3.63,0l-0,-7.71l-3.72,0l-0,18.9l3.72,0Z" style="fill:#f1f1f1;fill-rule:nonzero;"/><path d="M47.804,16.583c-0,-5.37 -1.56,-8.43 -5.61,-8.43c-4.08,0 -5.64,3.06 -5.64,8.43l-0,2.52c-0,5.37 1.56,8.43 5.64,8.43c4.05,0 5.61,-3.06 5.61,-8.43l-0,-2.52Zm-7.38,-1.77c-0,-2.19 0.33,-3.63 1.77,-3.63c1.44,0 1.77,1.44 1.77,3.63l-0,6.06c-0,2.19 -0.33,3.63 -1.77,3.63c-1.44,0 -1.77,-1.44 -1.77,-3.63l-0,-6.06Z" style="fill:#f1f1f1;fill-rule:nonzero;"/><path d="M60.554,19.313l-0.12,0l-1.65,-10.92l-2.79,0l-1.62,10.92l-0.12,0l-1.65,-10.92l-3.54,0l3.18,18.9l3.48,0l1.53,-10.53l0.12,0l1.56,10.53l3.48,0l3.18,-18.9l-3.42,0l-1.62,10.92Z" style="fill:#f1f1f1;fill-rule:nonzero;"/><path d="M78.854,27.293l-0,-15.84l3.63,0l-0,-3.06l-10.89,0l-0,3.06l3.54,0l-0,15.84l3.72,0Z" style="fill:#f1f1f1;fill-rule:nonzero;"/><path d="M94.934,16.583c-0,-5.37 -1.56,-8.43 -5.61,-8.43c-4.08,0 -5.64,3.06 -5.64,8.43l-0,2.52c-0,5.37 1.56,8.43 5.64,8.43c4.05,0 5.61,-3.06 5.61,-8.43l-0,-2.52Zm-7.38,-1.77c-0,-2.19 0.33,-3.63 1.77,-3.63c1.44,0 1.77,1.44 1.77,3.63l-0,6.06c-0,2.19 -0.33,3.63 -1.77,3.63c-1.44,0 -1.77,-1.44 -1.77,-3.63l-0,-6.06Z" style="fill:#f1f1f1;fill-rule:nonzero;"/><path d="M105.494,17.753l-0,-6.36l0.6,0c2.04,0 2.64,0.9 2.64,3.21c-0,2.28 -0.6,3.15 -2.64,3.15l-0.6,0Zm-0,3l0.96,0c4.11,0 5.88,-2.25 5.88,-6.18c-0,-3.93 -1.77,-6.18 -5.88,-6.18l-4.65,0l-0,18.9l3.69,0l-0,-6.54Z" style="fill:#f1f1f1;fill-rule:nonzero;"/><path d="M114.434,8.393l-0,18.9l8.79,0l-0,-3.06l-5.07,0l-0,-15.84l-3.72,0Z" style="fill:#f1f1f1;fill-rule:nonzero;"/><path d="M128.654,8.393l-4.02,18.9l3.42,0l0.78,-4.08l3.75,0l0.78,4.08l3.72,0l-4.02,-18.9l-4.41,0Zm2.04,5.19l0.12,0l1.26,6.78l-2.7,0l1.32,-6.78Z" style="fill:#f1f1f1;fill-rule:nonzero;"/><path d="M142.784,16.043l-2.43,-7.65l-3.84,0l4.29,12.21l-0,6.69l3.6,0l-0,-6.69l4.29,-12.21l-3.66,0l-2.25,7.65Z" style="fill:#f1f1f1;fill-rule:nonzero;"/></g></g></svg>